<?xml version="1.0" standalone="no"?>
<!DOCTYPE svg PUBLIC "-//W3C//DTD SVG 20010904//EN"
 "http://www.w3.org/TR/2001/REC-SVG-20010904/DTD/svg10.dtd">
<svg version="1.0" xmlns="http://www.w3.org/2000/svg"
 width="16.000000pt" height="16.000000pt" viewBox="0 0 16.000000 16.000000"
 preserveAspectRatio="xMidYMid meet">
<metadata>
Created by potrace 1.11, written by Peter Selinger 2001-2013
</metadata>
<g transform="translate(0.000000,16.000000) scale(0.002759,-0.002759)"
fill="#000000" stroke="none">
<path d="M2505 5215 c-14 -13 -25 -31 -25 -39 0 -12 8 -10 36 9 20 14 48 25
62 25 64 0 450 -156 498 -201 l23 -22 45 29 c25 16 45 34 43 39 -8 26 -121 68
-327 124 -257 70 -316 76 -355 36z"/>
<path d="M2512 5081 c-9 -5 26 -59 119 -182 158 -209 182 -236 234 -259 102
-46 187 -31 284 50 55 46 120 134 108 146 -2 3 -70 -27 -150 -67 l-145 -73
-48 19 c-39 14 -78 47 -185 154 -75 75 -151 155 -170 178 -23 27 -39 39 -47
34z"/>
<path d="M3357 4574 c-11 -11 -8 -352 2 -359 18 -10 20 11 21 186 2 158 -3
193 -23 173z"/>
<path d="M3457 4536 c-7 -17 18 -40 33 -31 5 3 10 15 10 26 0 23 -35 27 -43 5z"/>
<path d="M2692 4473 c2 -21 -2 -28 -20 -33 -29 -6 -30 -23 -2 -30 19 -5 21
-13 23 -86 3 -96 14 -116 65 -112 45 4 56 28 13 28 -16 0 -32 4 -35 8 -2 4 -6
41 -7 82 l-2 75 32 5 c41 6 41 24 -1 30 -29 4 -33 8 -30 33 3 22 -1 27 -18 27
-17 0 -21 -5 -18 -27z"/>
<path d="M2000 4330 c0 -87 3 -110 14 -110 10 0 15 19 18 75 4 84 25 118 73
118 41 0 50 -17 54 -108 2 -65 6 -85 17 -85 11 0 14 18 14 79 0 74 2 81 26
100 33 26 36 26 65 2 21 -17 25 -30 29 -103 3 -45 10 -83 15 -83 11 0 19 137
10 172 -3 12 -12 29 -21 37 -20 20 -88 21 -104 1 -7 -8 -17 -15 -22 -15 -5 0
-16 7 -24 15 -9 8 -33 15 -53 15 -22 0 -44 -6 -51 -15 -7 -8 -16 -15 -21 -15
-5 0 -9 7 -9 15 0 8 -7 15 -15 15 -12 0 -15 -19 -15 -110z"/>
<path d="M2412 4344 c3 -86 5 -98 27 -115 28 -23 66 -24 105 -4 33 17 39 19
32 6 -3 -5 1 -11 9 -15 13 -5 15 12 15 109 0 96 -3 115 -15 115 -12 0 -15 -15
-15 -78 0 -90 -18 -122 -70 -122 -45 0 -60 31 -60 122 0 65 -3 78 -16 78 -14
0 -15 -13 -12 -96z"/>
<path d="M2840 4350 c0 -83 2 -93 25 -115 28 -29 70 -32 105 -8 17 12 25 13
28 5 2 -7 10 -12 18 -12 11 0 14 22 14 110 0 91 -3 110 -15 110 -12 0 -15 -15
-15 -74 0 -87 -22 -126 -70 -126 -45 0 -60 31 -60 122 0 63 -3 78 -15 78 -12
0 -15 -17 -15 -90z"/>
<path d="M3124 4426 c-14 -11 -16 -18 -8 -26 8 -8 14 -9 18 -1 4 6 27 11 51
11 34 0 47 -5 55 -19 17 -33 12 -41 -29 -41 -104 0 -159 -69 -95 -119 32 -25
71 -27 104 -4 17 12 25 13 28 5 2 -7 10 -12 18 -12 11 0 14 18 14 84 0 109
-18 136 -89 136 -26 0 -56 -6 -67 -14z m126 -120 c0 -7 -9 -25 -21 -40 -20
-25 -50 -33 -83 -20 -19 7 -21 45 -4 62 17 17 108 16 108 -2z"/>
<path d="M3467 4433 c-9 -8 -9 -207 -1 -216 3 -3 11 -4 17 -1 8 3 11 38 9 114
-3 102 -8 121 -25 103z"/>
<path d="M3595 4428 c-28 -15 -28 -15 -21 -26 3 -6 22 -4 48 5 38 13 44 13 67
-5 41 -30 33 -46 -27 -53 -72 -9 -102 -30 -102 -74 0 -58 75 -87 128 -49 22
15 24 15 37 -2 13 -18 14 -18 20 -2 4 10 5 54 3 99 -3 70 -6 83 -27 100 -26
21 -94 25 -126 7z m115 -130 c0 -53 -86 -82 -110 -37 -18 32 12 59 67 59 37 0
43 -3 43 -22z"/>
<path d="M2000 4110 c0 -7 299 -10 876 -10 581 0 873 3 869 10 -4 7 -307 10
-876 10 -573 0 -869 -3 -869 -10z"/>
<path d="M2690 3909 c-80 -4 -183 -12 -230 -19 -213 -28 -593 -123 -784 -195
-38 -14 -69 -24 -70 -23 -1 2 -15 49 -31 106 -27 100 -29 103 -53 97 -75 -19
-419 -196 -604 -310 -128 -80 -410 -286 -405 -296 1 -4 81 -47 177 -95 l175
-89 -4 -138 c-2 -76 0 -180 4 -232 l7 -94 76 61 c81 65 288 203 383 257 l57
32 31 -81 c17 -45 31 -85 31 -88 0 -4 4 -13 9 -20 6 -11 19 -7 62 16 95 53
340 158 458 196 124 40 320 90 327 83 2 -2 -3 -20 -11 -40 -21 -50 -19 -133 5
-202 l20 -58 -45 -39 c-25 -22 -45 -47 -45 -57 0 -31 31 -61 78 -74 42 -13 47
-17 55 -53 10 -49 5 -61 -31 -69 -25 -5 -31 -12 -36 -46 -5 -34 1 -54 51 -156
74 -151 85 -158 233 -158 133 0 162 14 228 111 11 16 12 7 7 -56 -9 -114 -10
-115 -63 -127 -26 -6 -75 -21 -109 -34 -50 -19 -66 -22 -80 -12 -10 6 -17 17
-15 24 9 35 -74 40 -106 6 -33 -35 -37 -77 -14 -129 23 -53 67 -83 133 -93 62
-9 112 6 199 62 63 41 81 47 125 47 52 0 59 -3 173 -74 46 -29 62 -34 120 -34
50 -1 76 4 102 20 71 41 98 119 65 183 -16 32 -33 41 -75 41 -29 0 -44 -13
-45 -40 0 -26 -48 -22 -127 10 -42 16 -87 30 -101 30 -23 0 -25 4 -36 88 -15
121 -15 120 22 66 50 -75 82 -89 207 -89 147 0 173 14 220 121 19 43 43 91 53
106 13 18 17 40 15 75 -3 46 -5 49 -40 60 -20 7 -70 16 -110 20 l-73 8 60 30
c43 22 69 44 95 80 34 48 35 52 35 141 0 86 -2 95 -30 136 -44 62 -110 93
-200 91 -38 0 -82 -6 -98 -12 -25 -10 -27 -14 -21 -50 5 -34 3 -43 -20 -66
-18 -18 -35 -25 -54 -23 -29 3 -30 9 -17 79 11 54 -13 72 -86 67 l-58 -4 -17
45 c-9 25 -25 61 -36 79 l-20 32 79 0 c43 0 139 -5 213 -10 400 -31 747 -128
1123 -316 l87 -44 11 27 c6 16 22 57 35 92 14 36 26 67 29 69 11 11 314 -186
437 -284 l66 -53 7 102 c4 56 5 161 3 232 l-3 130 175 88 c96 49 176 92 177
95 6 17 -335 258 -511 361 -172 101 -509 262 -521 249 -3 -3 -18 -49 -32 -102
-14 -53 -30 -96 -35 -96 -5 0 -53 16 -108 34 -438 153 -887 219 -1330 195z
m140 -258 c0 -12 -9 -21 -25 -25 -24 -6 -25 -8 -25 -102 0 -87 -2 -97 -24
-119 -47 -46 -148 -45 -196 4 -23 23 -28 39 -35 105 -5 58 -11 79 -23 83 -10
4 -21 11 -25 17 -5 6 -5 -17 -2 -51 5 -42 3 -63 -4 -63 -5 0 -28 19 -50 42
-22 24 -43 40 -47 36 -6 -7 10 -137 22 -180 3 -11 15 -18 30 -18 18 0 25 -5
22 -17 -4 -22 -174 -57 -182 -37 -3 7 5 19 17 27 l21 14 -18 96 c-10 54 -22
97 -26 97 -11 0 -35 -40 -49 -83 -17 -49 -32 -43 -47 19 -8 38 -13 45 -19 31
-5 -11 -1 -51 10 -96 21 -94 14 -126 -35 -153 -43 -22 -136 -24 -167 -3 -13 9
-32 46 -48 95 -23 68 -29 79 -48 77 -12 -1 -22 4 -24 13 -4 18 173 85 183 69
9 -15 -4 -39 -21 -39 -19 0 -20 3 11 -97 27 -88 37 -99 79 -89 43 11 51 45 29
128 -18 71 -20 73 -52 76 -46 5 -39 31 13 49 44 15 300 68 380 78 130 17 200
23 207 19 16 -10 7 -33 -14 -36 -22 -3 -23 -7 -20 -78 4 -94 17 -130 47 -130
13 0 32 8 44 18 20 15 22 25 19 102 -3 84 -3 85 -30 88 -20 2 -28 9 -28 22 0
16 9 20 58 23 31 2 65 4 75 5 11 1 17 -5 17 -17z m195 -101 c47 -136 50 -140
79 -140 21 0 24 6 30 61 3 34 6 82 6 105 0 37 -3 44 -20 44 -13 0 -20 7 -20
20 0 15 7 20 28 20 46 0 195 -20 229 -31 34 -11 63 -47 63 -79 0 -20 2 -19 38
8 71 56 166 48 233 -19 48 -48 58 -94 33 -145 -26 -51 -63 -76 -122 -82 -67
-6 -114 11 -156 59 -30 33 -36 46 -36 86 l0 46 -25 -23 c-22 -20 -31 -22 -90
-18 l-65 6 0 -34 c0 -30 3 -34 25 -34 18 0 25 -5 25 -20 0 -23 3 -23 -115 -10
-49 5 -157 10 -238 10 -134 1 -148 2 -145 18 2 10 14 18 30 20 18 2 29 11 34
25 3 12 24 68 46 125 38 97 41 103 66 100 24 -3 30 -13 67 -118z m890 -51 c83
-28 107 -55 48 -53 -32 2 -32 1 -62 -88 -17 -50 -28 -95 -25 -99 13 -21 70 -4
141 41 12 8 25 12 28 8 7 -7 -44 -138 -54 -138 -3 0 -42 14 -86 31 -44 17
-105 39 -135 49 -60 19 -75 45 -25 45 28 1 31 4 57 90 26 83 27 91 12 102 -9
7 -22 14 -27 16 -6 2 -8 11 -4 21 8 19 3 20 132 -25z m-2095 -53 c0 -8 -9 -18
-20 -21 -24 -8 -23 -9 21 -126 25 -64 33 -75 52 -75 46 2 20 -27 -52 -56 -52
-20 -77 -26 -85 -18 -7 7 -5 15 6 27 15 15 15 20 -4 67 -11 28 -22 53 -25 56
-3 3 -2 -36 2 -86 7 -82 6 -92 -10 -98 -13 -5 -36 11 -85 59 -38 36 -71 65
-74 65 -4 0 7 -27 24 -60 27 -53 34 -60 57 -58 48 5 35 -21 -27 -52 -52 -26
-61 -28 -66 -15 -4 9 1 21 12 29 17 13 17 16 1 57 -10 24 -27 62 -40 84 -20
34 -28 40 -57 40 -76 0 -36 38 100 93 4 1 27 -16 52 -38 25 -22 49 -40 52 -40
3 0 6 30 8 66 l3 66 55 23 c65 27 100 31 100 11z m2350 -45 c56 -24 86 -43 88
-55 3 -15 -1 -18 -17 -13 -19 5 -20 2 -15 -36 4 -23 8 -43 9 -45 2 -2 17 4 34
12 26 14 30 20 24 46 -7 38 4 38 68 3 33 -17 49 -33 49 -46 0 -16 -4 -18 -22
-12 -36 11 -60 8 -110 -14 -39 -18 -51 -30 -68 -69 -19 -42 -19 -48 -5 -58 19
-14 20 -34 1 -34 -28 0 -168 70 -163 83 2 6 15 11 29 9 19 -2 28 5 41 33 16
33 16 40 0 102 -9 36 -25 75 -35 85 -18 18 -18 49 -1 47 4 0 46 -17 93 -38z
m-1557 -168 c-7 -2 -19 -2 -25 0 -7 3 -2 5 12 5 14 0 19 -2 13 -5z m263 -285
c5 -18 -3 -31 -44 -69 -107 -98 -257 -159 -398 -162 -66 -1 -87 2 -94 13 -21
33 -11 40 53 40 131 0 317 71 417 159 25 22 48 40 52 41 4 0 10 -10 14 -22z
m-95 -290 c19 -6 72 -36 119 -65 47 -30 110 -61 140 -70 l55 -16 -45 -12 c-25
-6 -71 -20 -102 -29 -57 -17 -58 -17 -160 10 -73 19 -137 28 -221 32 -99 4
-117 7 -113 19 4 8 9 25 12 37 4 18 18 24 82 38 58 12 188 56 198 67 1 0 16
-4 35 -11z m-64 -213 c72 -21 87 -42 80 -107 -4 -29 -17 -73 -30 -98 -33 -65
-78 -85 -187 -85 -134 0 -169 29 -189 157 -14 82 -4 114 41 133 45 19 219 19
285 0z m616 4 c54 -15 64 -41 50 -135 -19 -132 -53 -159 -193 -158 -121 0
-152 15 -185 87 -13 29 -27 73 -30 99 -6 41 -4 50 18 72 16 16 41 27 73 31 27
4 54 8 59 10 24 8 173 4 208 -6z"/>
<path d="M3250 3593 c0 -10 -3 -35 -6 -55 -6 -34 -4 -38 14 -38 12 0 26 9 32
19 15 30 12 78 -6 85 -26 10 -34 7 -34 -11z"/>
<path d="M3563 3540 c-24 -21 -47 -109 -41 -155 3 -26 7 -30 33 -30 25 0 33 7
49 38 10 21 19 61 20 89 1 40 -3 53 -20 64 -18 12 -23 12 -41 -6z"/>
<path d="M2906 3515 c-9 -23 -8 -25 9 -25 17 0 19 9 6 28 -7 11 -10 10 -15 -3z"/>
<path d="M2877 3436 c-4 -9 2 -15 16 -18 33 -6 57 2 57 18 0 19 -66 19 -73 0z"/>
<path d="M2552 2328 c-20 -20 -14 -48 13 -60 28 -13 55 3 55 32 0 14 -5 17
-22 12 -17 -4 -20 -2 -15 11 7 20 -13 23 -31 5z"/>
<path d="M3137 2333 c-11 -11 -8 -48 5 -61 18 -18 46 -14 58 7 13 25 13 41 -1
41 -5 0 -7 -4 -4 -10 3 -6 -1 -7 -10 -4 -9 4 -14 13 -11 20 6 14 -25 20 -37 7z"/>
<path d="M3106 1532 l-120 -62 -25 23 c-14 13 -34 27 -44 30 -24 9 -83 -16
-99 -42 -12 -19 -16 -18 -134 45 -66 35 -126 64 -132 64 -7 0 -10 -52 -9 -160
1 -88 4 -160 7 -160 3 0 59 23 126 51 l121 51 31 -31 c43 -43 100 -44 135 -1
l25 29 117 -50 c65 -27 120 -48 122 -46 2 2 2 76 1 163 l-3 159 -119 -63z"/>
<path d="M3296 1117 c7 -34 13 -67 14 -74 0 -6 -23 -36 -51 -67 l-50 -55 38
-7 c107 -18 101 -14 135 -87 l33 -68 37 69 38 69 76 13 76 12 -52 53 -53 54 9
75 10 75 -70 -37 -69 -36 -67 36 -67 37 13 -62z"/>
<path d="M2150 1160 c0 -7 5 -42 12 -77 l12 -64 -53 -53 c-56 -57 -55 -66 9
-66 73 0 86 -9 115 -76 15 -35 31 -64 35 -64 4 0 19 29 34 64 29 69 41 76 125
76 65 0 66 12 6 69 -45 43 -54 56 -49 79 18 99 21 122 15 122 -3 -1 -35 -16
-71 -34 l-64 -33 -63 34 c-38 21 -63 30 -63 23z"/>
<path d="M2970 943 c-41 -24 -81 -43 -88 -43 -7 0 -48 18 -92 40 -50 25 -80
35 -80 28 0 -7 5 -48 12 -91 l12 -78 -68 -68 c-38 -38 -64 -71 -60 -74 5 -3
41 -8 79 -12 39 -4 79 -11 91 -15 12 -5 38 -42 64 -90 l42 -82 38 83 c22 48
45 85 56 89 10 4 51 11 89 15 39 4 74 9 79 12 4 3 -22 36 -59 73 l-67 68 15
93 c8 52 14 94 13 95 0 0 -35 -19 -76 -43z"/>
</g>
</svg>
