<svg xmlns="http://www.w3.org/2000/svg" xmlns:xlink="http://www.w3.org/1999/xlink" width="30" height="30" viewBox="0 0 30 30"><defs><circle id="a" cx="15.083" cy="15.051" r="15"/></defs><clipPath id="b"><use xlink:href="#a" overflow="visible"/></clipPath><g clip-path="url(#b)"><path fill="#C62127" d="M-4.703 26.643c0 2.158 1.749 3.906 3.905 3.906h38.144c2.158 0 3.908-1.748 3.908-3.906v-3.77h-45.957v3.77zm42.049-26.884h-38.144c-2.156 0-3.905 1.749-3.905 3.906v3.77h45.957v-3.77c0-2.158-1.75-3.906-3.908-3.906z"/><path fill="#FECD33" d="M-4.703 7.435h45.957v15.438h-45.957v-15.438z"/><path fill="#C8B22E" stroke="#010101" stroke-width=".25" d="M-516.838-799.775h-.245v-.243h-.431v.985h.431v.68h-.926v1.976h.494v3.954h-.993v2.037h7.603v-2.037h-.989v-3.954h.49v-1.976h-.921v-.68h.431v-.985h-.431v.243h-.245v-.243h-.44v.243h-.309v-.243h-.427v.985h.427v.68h-.926v-2.162h.499v-.989h-.499v.249h-.245v-.249h-.431v.249h-.245v-.249h-.507v.989h.507v2.162h-.93v-.68h.423v-.985h-.423v.243h-.245v-.243h-.499v.243h.002zm-1.67 9.389h7.603-7.603zm0-.49h7.603-7.603zm0-.499h7.603-7.603zm0-.495h7.603-7.603zm0-.553h7.603-7.603zm.993-.431h5.621-5.621zm0-.497h5.621-5.621zm0-.558h5.621-5.621zm0-.492h5.621-5.621zm0-.493h5.621-5.621zm0-.492h5.621-5.621zm0-.496h5.621-5.621zm-.494-.495h6.606-6.606zm0-.494h6.606-6.606zm0-.495h6.606-6.606zm0-.492h6.606-6.606zm.926-.495h4.759-4.759zm1.918-.492h.921-.921zm0-.497h.921-.921zm0-.492h.921-.921zm0-.494h.921-.921zm-.507-.62h1.927-1.927zm-1.411 2.103h.989-.989zm-.432-.619h1.843-1.843zm0 9.078v-.49.49zm0-.989v-.494.494zm-.494 0v.499-.499zm.926.499v-.499.499zm.494.49v-.49.49zm0-.989v-.494.494zm0-1.048v-.431.431zm0-.928v-.558.558zm-.494 1.481v-.554.554zm-.926 0v-.554.554zm1.915-.553v.554-.554zm.422 0v-.431.431zm-1.411-.928v.497-.497zm.989 0v.497-.497zm.929 0v.497-.497zm-.507 0v-.558.558zm.507-1.05v.492-.492zm0-.985v.492-.492zm-.507-.496v.497-.497zm.507-.495v.495-.495zm-.929 0v.495-.495zm-.989 0v.495-.495zm-.432-.494v.494-.494zm.926 0v.494-.494zm.917 0v.494-.494zm.507-.495v.495-.495zm-.929 0v.495-.495zm-.989 0v.495-.495zm-.432-.492v.492-.492zm1.843 0v.492-.492zm-.917-.987v.492-.492zm4.264 0h-.993.993zm.431-.619h-1.851 1.851zm0 9.078v-.49.49zm0-.989v-.494.494zm.491 0v.499-.499zm-.922.499v-.499.499zm-.498.49v-.49.49zm0-.989v-.494.494zm0-1.048v-.431.431zm0-.928v-.558.558zm.498 1.481v-.554.554zm.922 0v-.554.554zm-1.915-.553v.554-.554zm-.427 0v-.431.431zm1.42-.928v.497-.497zm-.993 0v.497-.497zm-.925 0v.497-.497zm.498 0v-.558.558zm-.498-1.05v.492-.492zm0-.985v.492-.492zm.498-.496v.497-.497zm-.498-.494v.495-.495zm.925 0v.495-.495zm.993 0v.495-.495zm.431-.495v.494-.494zm-.929 0v.494-.494zm-.922 0v.494-.494zm-.498-.495v.495-.495zm.925 0v.495-.495zm.993 0v.495-.495zm.431-.492v.492-.492zm-1.851 0v.492-.492zm.922-.987v.492-.492zm-1.915 5.494v-.558.558zm0-2.035v-.497.497zm0 .985v-.492.492zm0-1.975v-.494.494zm0-.99v-.492.492zm0-1.479v-.497.497zm0-.988v-.495.495zm-2.345.8h.989-.989zm1.918-1.481h.921-.921zm1.847 1.481h.993-.993zm-1020.916-130.849v-1.293c0-.249-.123-.993-1.297-.993-1.111 0-1.234.744-1.234.993v1.293h2.531zm-2.097-1.234l-.621-.059c0-.249.063-.621.245-.744l.562.431c-.063.063-.186.253-.186.372zm1.665 0l.617-.059c0-.249-.063-.621-.245-.744l-.558.431c.06.063.186.253.186.372zm-.617-.617l.308-.558c-.123-.06-.368-.123-.558-.123-.123 0-.368.063-.494.123l.313.558h.431zm-1.183-1.545v-1.359c0-.372-.241-.68-.668-.68-.44 0-.68.308-.68.68v1.359h1.348zm1.927 0v-1.359c0-.372.245-.68.676-.68.431 0 .676.308.676.68v1.359h-1.352zm1020.296 136.164l.126-1.239h-1.175l.06 1.239h.989zm.925 0l-.122-1.239h1.234l-.119 1.239h-.993zm-2.777 0l.06-1.239h-1.171l.123 1.239h.988z"/><path fill="#3C57A7" d="M-1534.666-929.882v-1.112c0-.182-.127-.74-.866-.74-.676 0-.799.558-.799.74v1.112h1.665zm-1.914-3.523v-1.169c0-.309-.186-.621-.554-.621-.376 0-.554.313-.554.621v1.169h1.108zm2.16 0v-1.169c0-.309.186-.621.558-.621s.558.313.558.621v1.169h-1.116z"/></g></svg>