<svg xmlns="http://www.w3.org/2000/svg" xmlns:xlink="http://www.w3.org/1999/xlink" width="30" height="30" viewBox="0 0 30 30"><defs><circle id="a" cx="15.012" cy="15.017" r="15"/></defs><clipPath id="b"><use xlink:href="#a" overflow="visible"/></clipPath><g clip-path="url(#b)"><path fill="#273476" d="M18.666 31h13.658l-13.658-9.637zm-27-10.734v6.439c0 .244.208.482.252.715l10.199-6.984-10.451-.17zm.253-17.264c-.044.234-.253.477-.253.723v6.117l10.371.168-10.118-7.008zm40.845-3.002h-14.098v9.266zm4.902 9.842v-6.117c0-.246.137-.488.092-.725l-10.29 7.01 10.198-.168zm.092 17.578c.045-.232-.092-.471-.092-.715v-6.439l-10.28.17 10.372 6.984zm-26.092-27.42h-14.407l14.407 9.266zm-13.966 31h13.966v-9.637z"/><path d="M11.666 9.266l-14.407-9.266h-1.32c-.863 0-1.658.117-2.305.59l13.699 9.41h-3.434l-11.487-8.021c-.142.297-.247.652-.309.984l10.026 7.027-10.463-.148v2.086l13.53.201 7.47.111v-12.24h-1v9.266zm6 9.23v12.504h1v-9.637l13.658 9.637h1.758c.945 0 1.813-.319 2.488-.878l-13.877-9.122h3.432l11.59 7.351c.09-.227.16-.573.205-.825l-10.453-7.037 10.199-.223v-2.082l-13.046.201-6.954.111zm-26-.312v2.082l10.543.17-10.199 6.984c.169.92.706 1.937 1.399 2.507l13.924-8.927h3.434l-14.777 10h1.71l13.966-9.637v9.637h1v-12.504l-7.455-.111-13.545-.201zm35.883-8.174l10.29-7.01c-.186-.992-.708-1.925-1.489-2.501l-13.657 9.501h-3.439l14.783-10h-1.273l-14.098 9.266v-9.266h-1v12.241l6.97-.111 13.03-.201v-2.087l-10.117.168z" fill="#fff"/><path fill="#ED2F31" d="M24.636 12.129l-6.97.111v-12.24h-5v12.24l-7.47-.111-13.53-.201v6.256l13.545.201 7.455.111v12.504h5v-12.504l6.954-.111 13.046-.201v-6.256zm-20.737-2.129h3.435l-13.7-9.501c-.521.383-.943.852-1.222 1.442l11.487 8.059zm15.355 0h3.439l13.697-9.41c-.646-.473-1.443-.59-2.308-.59h-.045l-14.783 10zm3.439 11l13.877 8.927c.504-.416.898-.853 1.145-1.472l-11.59-7.455h-3.432zm-15.36 0l-13.878 9.122c.675.559 1.541.878 2.484.878h.051l14.777-10h-3.434z"/></g></svg>